<svg version="1.0" xmlns="http://www.w3.org/2000/svg" width="700pt" height="700pt" viewBox="0 0 700 700"><g transform="translate(0.000000,700.000000) scale(0.100000,-0.100000)" fill="#000" stroke="none"><path d="M1085 6993c-174-23-357-145-432-288-67-129-63-17-63-1620 0-1607-5-1495 65-1620 81-145 232-248 416-284 27-6-167-9-513-10l-558-1v-270-270h655 655l2-1148 3-1147 33-69c43-91 92-150 164-196 117-76-34-71 2018-68l1835 3 70 34c119 58 216 177 244 302 7 28 11 447 11 1167v1122h655 655v270 270l-557 1c-520 1-553 2-488 15 117 25 209 76 295 163 44 45 87 99 102 131 61 124 58 40 58 1615 0 1290-2 1447-16 1496-53 181-194 318-394 386-53 17-150 18-2470 19-1328 1-2428-1-2445-3zm4753-1905 2-1368H35e2 1160v1363c0 750 3 1367 7 1370 3 4 1055 6 2337 5l2331-3 3-1367zM24e2 2185v-215h-215-215v215 215h215 215v-215zm660 0v-215h-215-215v215 215h215 215v-215zm660 0v-215h-220-220v215 215h220 220v-215zm650 0v-215h-215-215v215 215h215 215v-215zm660 0v-215h-215-215v215 215h215 215v-215zm-2630-650v-215h-215-215v215 215h215 215v-215zm660 0v-215h-215-215v215 215h215 215v-215zm660 0v-215h-220-220v215 215h220 220v-215zm650 0v-215h-215-215v215 215h215 215v-215zm660 0v-215h-215-215v215 215h215 215v-215zm-660-880V440h-870-870v215 215h870 870V655z"/><path d="M3295 6193c-170-440-855-2244-855-2252 0-8 46-11 162-9l161 3 89 250c48 138 95 269 104 293l16 42h507 508l104-292 104-293 154-3c85-1 158 1 161 5 4 5-187 517-424 1138l-432 1130-176 3c-160 2-176 1-183-15zm389-859 204-549-406-3c-223-1-407 0-409 2-3 2 87 252 198 555 112 302 205 549 206 547 2-2 95-250 207-552z"/></g></svg>