<?xml version="1.0" standalone="no"?>
<!DOCTYPE svg PUBLIC "-//W3C//DTD SVG 20010904//EN"
 "http://www.w3.org/TR/2001/REC-SVG-20010904/DTD/svg10.dtd">
<svg version="1.0" xmlns="http://www.w3.org/2000/svg"
 width="700.000000pt" height="700.000000pt" viewBox="0 0 700.000000 700.000000"
 preserveAspectRatio="xMidYMid meet">
<metadata>
Created by potrace 1.14, written by Peter Selinger 2001-2017
</metadata>
<g transform="translate(0.000000,700.000000) scale(0.100000,-0.100000)"
fill="#000000" stroke="none">
<path d="M1085 6993 c-174 -23 -357 -145 -432 -288 -67 -129 -63 -17 -63
-1620 0 -1607 -5 -1495 65 -1620 81 -145 232 -248 416 -284 27 -6 -167 -9
-513 -10 l-558 -1 0 -270 0 -270 655 0 655 0 2 -1148 3 -1147 33 -69 c43 -91
92 -150 164 -196 117 -76 -34 -71 2018 -68 l1835 3 70 34 c119 58 216 177 244
302 7 28 11 447 11 1167 l0 1122 655 0 655 0 0 270 0 270 -557 1 c-520 1 -553
2 -488 15 117 25 209 76 295 163 44 45 87 99 102 131 61 124 58 40 58 1615 0
1290 -2 1447 -16 1496 -53 181 -194 318 -394 386 -53 17 -150 18 -2470 19
-1328 1 -2428 -1 -2445 -3z m4753 -1905 l2 -1368 -2340 0 -2340 0 0 1363 c0
750 3 1367 7 1370 3 4 1055 6 2337 5 l2331 -3 3 -1367z m-3438 -2903 l0 -215
-215 0 -215 0 0 215 0 215 215 0 215 0 0 -215z m660 0 l0 -215 -215 0 -215 0
0 215 0 215 215 0 215 0 0 -215z m660 0 l0 -215 -220 0 -220 0 0 215 0 215
220 0 220 0 0 -215z m650 0 l0 -215 -215 0 -215 0 0 215 0 215 215 0 215 0 0
-215z m660 0 l0 -215 -215 0 -215 0 0 215 0 215 215 0 215 0 0 -215z m-2630
-650 l0 -215 -215 0 -215 0 0 215 0 215 215 0 215 0 0 -215z m660 0 l0 -215
-215 0 -215 0 0 215 0 215 215 0 215 0 0 -215z m660 0 l0 -215 -220 0 -220 0
0 215 0 215 220 0 220 0 0 -215z m650 0 l0 -215 -215 0 -215 0 0 215 0 215
215 0 215 0 0 -215z m660 0 l0 -215 -215 0 -215 0 0 215 0 215 215 0 215 0 0
-215z m-660 -880 l0 -215 -870 0 -870 0 0 215 0 215 870 0 870 0 0 -215z"/>
<path d="M3295 6193 c-170 -440 -855 -2244 -855 -2252 0 -8 46 -11 162 -9
l161 3 89 250 c48 138 95 269 104 293 l16 42 507 0 508 0 104 -292 104 -293
154 -3 c85 -1 158 1 161 5 4 5 -187 517 -424 1138 l-432 1130 -176 3 c-160 2
-176 1 -183 -15z m389 -859 l204 -549 -406 -3 c-223 -1 -407 0 -409 2 -3 2 87
252 198 555 112 302 205 549 206 547 2 -2 95 -250 207 -552z"/>
</g>
</svg>
